<?xml version="1.0" encoding="UTF-8" standalone="no"?>
<svg
   width="700pt"
   height="700pt"
   version="1.1"
   viewBox="0 0 700 700"
   id="svg738"
   xmlns="http://www.w3.org/2000/svg"
   xmlns:svg="http://www.w3.org/2000/svg">
  <defs
     id="defs742" />
  <g
     id="g736"
     transform="translate(-2.1845723e-4,70.000382)">
    <path
       d="m 519.69,294.68 c -11.938,-37.43 -30.418,-73.457 -74.199,-85.164 -0.72266,-20.133 11.922,-36.812 14.211,-56.352 C 463.745,118.41 456.6551,89.23 426.811,66.914 407.053,52.156 386.538,40.383 362.53,34.785 342.46,22.254 323.569,29.1327 305.3,38.8944 c -21.223,11.352 -39.496,26.801 -56.945,43.227 -2.2695,4.7227 -4.5352,9.4531 -6.7891,14.172 -7.543,6.5312 -9.0312,15.645 -11.234,24.719 -8.1641,33.699 1.3555,64.18 16.195,93.828 -1.7305,2.1289 -3.4727,4.2578 -5.2188,6.3945 -41.234,23.07 -56.637,61.242 -61.652,105.48 -0.86719,1.4297 -1.4297,2.9062 -1.7812,4.418 -3.4844,10.008 -3.5352,20.539 -3.8633,31.035 0.004,0 0.0117,-0.004 0.0156,-0.004 -10.809,39.375 -16.141,78.703 1.0586,117.84 9.1289,19.516 29.418,16.801 45.348,22.773 0,0 -0.0352,-0.17188 -0.043,-0.17188 16.352,-0.11328 31.059,6.625 46.273,11.16 73.672,21.945 147.25,26.594 220.91,-0.0625 22.707,-8.2305 42.945,-19.207 45.496,-46.355 5.5039,-58.281 4.4414,-116.8 -13.383,-172.66 z M 382.97,75.44 c 0.0508,-0.03516 0.10156,-0.0625 0.15234,-0.09375 0.0508,0.03516 0.0937,0.07422 0.14453,0.10156 -0.15625,0.08594 -0.30859,0.17188 -0.46484,0.26172 0.0547,-0.08984 0.10938,-0.17969 0.16797,-0.26953 z m -21.039,274.32 c -0.375,-0.25391 -0.73828,-0.63281 -1.0859,-1.2656 0.48047,0.45312 0.96484,0.73828 1.4492,0.92969 -0.125,0.11719 -0.24219,0.21875 -0.36328,0.33594 z m 61.375,-56.242 c -1.0742,-0.24609 -2.1797,-0.44141 -3.3086,-0.59375 0.69531,-0.34766 1.5273,-0.60547 2.5977,-0.71875 0.24609,0.44141 0.47656,0.875 0.71094,1.3125 z m -121.91,205.84 c 0.0352,0.91406 0.0352,1.832 0.0742,2.7422 -0.0234,-0.0547 -0.043,-0.11719 -0.0742,-0.17188 -0.0234,0.0547 -0.043,0.11328 -0.0664,0.16797 0.0312,-0.91406 0.0312,-1.832 0.0664,-2.7383 z m 39.816,-452.58 c -0.4375,1.8867 -1.2305,2.9297 -3.0469,1.7188 1.0078,-0.58203 2.0078,-1.1758 3.0469,-1.7188 z"
       id="path734" />
  </g>
</svg>
