<?xml version="1.0" encoding="UTF-8" standalone="no"?>
<svg
   width="700pt"
   height="700pt"
   version="1.1"
   viewBox="0 0 700 700"
   id="svg2407"
   xmlns="http://www.w3.org/2000/svg"
   xmlns:svg="http://www.w3.org/2000/svg">
  <defs
     id="defs7" />
  <g
     id="g714"
     transform="translate(-0.006341,70.004246)">
    <g
       id="g2405">
      <path
         d="m 350.01,528.58 c 11.609,-0.57031 210,-15.238 210,-366.58 V 99.219 c -33.938,-0.35156 -125.92,-7.125 -210,-65 -84.086,57.859 -176.07,64.629 -210,65 V 162 c 0,351.34 198.39,366.01 210,366.58 z M 585.73,162 c 0,386.22 -234.5,392.18 -235.17,392.21 -0.37109,0.0156 -0.73828,0.0156 -1.1094,0 -0.67188,-0.0352 -235.17,-5.9961 -235.17,-392.21 V 86.18 h 0.0352 l 0.0156,-0.70703 c 0.38672,-7.0742 6.4336,-12.5 13.508,-12.098 0.33594,0.01563 114.83,7.5586 214.49,-65.051 4.3867,-3.2773 10.551,-3.4961 15.223,-0.10156 94.703,69.098 202.89,65.723 213.73,65.203 0.51953,-0.06641 1.0586,-0.10156 1.5977,-0.10156 7.0898,0 12.852,5.7617 12.852,12.852 v 75.82 z"
         id="path2339" />
    </g>
    <path
       d="m 508.53634,183.67068 c -85.32221,86.46717 -237.51053,84.16361 -317.06,-9.22325 85.32216,-85.322256 237.51053,-83.011801 317.06,9.22325 z M 379.40465,129.48202 c 39.19952,23.05855 38.04775,79.55635 -2.3058,101.46111 41.5051,-4.61171 81.85989,-20.75298 111.83408,-48.42282 -28.82446,-28.82449 -68.02397,-47.27122 -109.53058,-53.03419 z m -58.80071,100.30243 c -39.19955,-23.05856 -38.04775,-80.70816 2.30585,-101.46104 -41.5052,3.46007 -81.86002,19.60109 -111.83416,47.27079 28.82445,29.97642 68.02397,47.27126 109.53058,54.18888 z"
       id="path673"
       style="stroke-width:0.999932" />
    <path
       d="m 508.53634,334.33829 c -85.32221,86.46717 -237.51053,84.16361 -317.06,-9.22325 85.32216,-85.32225 237.51053,-83.0118 317.06,9.22325 z M 379.40465,280.14963 c 39.19952,23.05855 38.04775,79.55635 -2.3058,101.46111 41.5051,-4.61171 81.85989,-20.75298 111.83408,-48.42282 -28.82446,-28.82449 -68.02397,-47.27122 -109.53058,-53.03419 z m -58.80071,100.30243 c -39.19955,-23.05856 -38.04775,-80.70816 2.30585,-101.46104 -41.5052,3.46007 -81.86002,19.60109 -111.83416,47.27079 28.82445,29.97642 68.02397,47.27126 109.53058,54.18888 z"
       id="path673-5"
       style="stroke-width:0.999932" />
  </g>
</svg>
