<?xml version="1.0" encoding="UTF-8" standalone="no"?>
<svg
   width="700pt"
   height="700pt"
   version="1.1"
   viewBox="0 0 700 700"
   id="svg1482"
   xmlns="http://www.w3.org/2000/svg"
   xmlns:svg="http://www.w3.org/2000/svg">
  <defs
     id="defs448" />
  <g
     id="g1480"
     transform="translate(0.27905,68.8802)">
    <path
       d="m 402.08,258.72 -69.438,-16.238 58.801,95.758 3.918,31.363 19.039,7.2773 -22.957,12.32 -3.3633,78.961 -8.3984,-81.762 h -22.961 l 30.242,-33.598 -77.281,-122.64 -48.719,-20.719 14.559,-2.2422 10.641,-22.398 -3.3594,-16.242 32.48,29.121 51.52,-9.5195 v -39.762 l -109.76,-48.719 -77.84,124.32 30.242,44.238 74.48,120.96 -19.602,148.4 h 174.72 l 4.4805,-138.88 34.16,-43.117 17.922,-103.04 -49.84,46.48 z"
       id="path1386" />
    <path
       d="m 446.88,288.4 73.359,-78.957 -36.398,-37.52 -69.441,85.68 z"
       id="path1388" />
    <path
       d="M 406,253.12 481.039,154.558 428.398,116.48 361.199,230.16 Z"
       id="path1390" />
    <path
       d="m 378.56,142.8 1.6797,35.277 47.043,-78.398 -53.203,-39.758 -32.477,59.359 z"
       id="path1392" />
    <path
       d="m 366.8,59.922 -50.402,-35.281 -43.68,68.32 59.922,26.32 z"
       id="path1394" />
    <path
       d="m 341.6,234.64 25.199,-38.082 -63.281,16.801 z"
       id="path1396" />
  </g>
</svg>
